<mxfile host="app.diagrams.net" modified="2024-06-17T04:55:20.189Z" agent="Mozilla/5.0 (Macintosh; Intel Mac OS X 10_15_7) AppleWebKit/605.1.15 (KHTML, like Gecko) Version/17.5 Safari/605.1.15" etag="uSoo_KXKRYtcF8s9pAcE" version="24.5.4" type="device">
  <diagram name="Page-1" id="JR2kuJdq1zbRZiOPOg9G">
    <mxGraphModel dx="2261" dy="827" grid="1" gridSize="10" guides="1" tooltips="1" connect="1" arrows="1" fold="1" page="1" pageScale="1" pageWidth="827" pageHeight="1169" math="0" shadow="0">
      <root>
        <mxCell id="0" />
        <mxCell id="1" parent="0" />
        <mxCell id="3Fzgw3bwLbgeH6Izsh_8-125" value="" style="rounded=0;whiteSpace=wrap;html=1;" vertex="1" parent="1">
          <mxGeometry x="-720" y="70" width="890" height="470" as="geometry" />
        </mxCell>
        <mxCell id="3Fzgw3bwLbgeH6Izsh_8-2" value="Core 0" style="rounded=1;whiteSpace=wrap;html=1;fillColor=#3399FF;strokeColor=#10739e;glass=1;" vertex="1" parent="1">
          <mxGeometry x="-680" y="260" width="60" height="50" as="geometry" />
        </mxCell>
        <mxCell id="3Fzgw3bwLbgeH6Izsh_8-58" value="10" style="whiteSpace=wrap;html=1;aspect=fixed;fillColor=#99FF99;" vertex="1" parent="1">
          <mxGeometry x="-440" y="160" width="40" height="40" as="geometry" />
        </mxCell>
        <mxCell id="3Fzgw3bwLbgeH6Izsh_8-59" value="20" style="whiteSpace=wrap;html=1;aspect=fixed;fillColor=#99FF99;" vertex="1" parent="1">
          <mxGeometry x="-400" y="160" width="40" height="40" as="geometry" />
        </mxCell>
        <mxCell id="3Fzgw3bwLbgeH6Izsh_8-60" value="8" style="whiteSpace=wrap;html=1;aspect=fixed;fillColor=#99FF99;" vertex="1" parent="1">
          <mxGeometry x="-360" y="160" width="40" height="40" as="geometry" />
        </mxCell>
        <mxCell id="3Fzgw3bwLbgeH6Izsh_8-61" value="9" style="whiteSpace=wrap;html=1;aspect=fixed;fillColor=#99FF99;" vertex="1" parent="1">
          <mxGeometry x="-320" y="160" width="40" height="40" as="geometry" />
        </mxCell>
        <mxCell id="3Fzgw3bwLbgeH6Izsh_8-62" value="0" style="whiteSpace=wrap;html=1;aspect=fixed;fillColor=#99FF99;" vertex="1" parent="1">
          <mxGeometry x="-250" y="160" width="40" height="40" as="geometry" />
        </mxCell>
        <mxCell id="3Fzgw3bwLbgeH6Izsh_8-63" value="1" style="whiteSpace=wrap;html=1;aspect=fixed;fillColor=#99FF99;" vertex="1" parent="1">
          <mxGeometry x="-210" y="160" width="40" height="40" as="geometry" />
        </mxCell>
        <mxCell id="3Fzgw3bwLbgeH6Izsh_8-64" value="5" style="whiteSpace=wrap;html=1;aspect=fixed;fillColor=#99FF99;" vertex="1" parent="1">
          <mxGeometry x="-170" y="160" width="40" height="40" as="geometry" />
        </mxCell>
        <mxCell id="3Fzgw3bwLbgeH6Izsh_8-65" value="17" style="whiteSpace=wrap;html=1;aspect=fixed;fillColor=#99FF99;" vertex="1" parent="1">
          <mxGeometry x="-130" y="160" width="40" height="40" as="geometry" />
        </mxCell>
        <mxCell id="3Fzgw3bwLbgeH6Izsh_8-76" value="+" style="ellipse;whiteSpace=wrap;html=1;aspect=fixed;fillColor=#3399FF;" vertex="1" parent="1">
          <mxGeometry x="-435" y="240" width="30" height="30" as="geometry" />
        </mxCell>
        <mxCell id="3Fzgw3bwLbgeH6Izsh_8-77" value="+" style="ellipse;whiteSpace=wrap;html=1;aspect=fixed;fillColor=#3399FF;" vertex="1" parent="1">
          <mxGeometry x="-395" y="240" width="30" height="30" as="geometry" />
        </mxCell>
        <mxCell id="3Fzgw3bwLbgeH6Izsh_8-78" value="+" style="ellipse;whiteSpace=wrap;html=1;aspect=fixed;fillColor=#3399FF;" vertex="1" parent="1">
          <mxGeometry x="-355" y="240" width="30" height="30" as="geometry" />
        </mxCell>
        <mxCell id="3Fzgw3bwLbgeH6Izsh_8-79" value="+" style="ellipse;whiteSpace=wrap;html=1;aspect=fixed;fillColor=#3399FF;" vertex="1" parent="1">
          <mxGeometry x="-315" y="240" width="30" height="30" as="geometry" />
        </mxCell>
        <mxCell id="3Fzgw3bwLbgeH6Izsh_8-80" value="3" style="whiteSpace=wrap;html=1;aspect=fixed;fillColor=#99FF99;" vertex="1" parent="1">
          <mxGeometry x="-440" y="320" width="40" height="40" as="geometry" />
        </mxCell>
        <mxCell id="3Fzgw3bwLbgeH6Izsh_8-81" value="2" style="whiteSpace=wrap;html=1;aspect=fixed;fillColor=#99FF99;" vertex="1" parent="1">
          <mxGeometry x="-400" y="320" width="40" height="40" as="geometry" />
        </mxCell>
        <mxCell id="3Fzgw3bwLbgeH6Izsh_8-82" value="13" style="whiteSpace=wrap;html=1;aspect=fixed;fillColor=#99FF99;" vertex="1" parent="1">
          <mxGeometry x="-360" y="320" width="40" height="40" as="geometry" />
        </mxCell>
        <mxCell id="3Fzgw3bwLbgeH6Izsh_8-83" value="19" style="whiteSpace=wrap;html=1;aspect=fixed;fillColor=#99FF99;" vertex="1" parent="1">
          <mxGeometry x="-320" y="320" width="40" height="40" as="geometry" />
        </mxCell>
        <mxCell id="3Fzgw3bwLbgeH6Izsh_8-84" value="24" style="whiteSpace=wrap;html=1;aspect=fixed;fillColor=#99FF99;" vertex="1" parent="1">
          <mxGeometry x="-250" y="320" width="40" height="40" as="geometry" />
        </mxCell>
        <mxCell id="3Fzgw3bwLbgeH6Izsh_8-85" value="11" style="whiteSpace=wrap;html=1;aspect=fixed;fillColor=#99FF99;" vertex="1" parent="1">
          <mxGeometry x="-210" y="320" width="40" height="40" as="geometry" />
        </mxCell>
        <mxCell id="3Fzgw3bwLbgeH6Izsh_8-86" value="32" style="whiteSpace=wrap;html=1;aspect=fixed;fillColor=#99FF99;" vertex="1" parent="1">
          <mxGeometry x="-170" y="320" width="40" height="40" as="geometry" />
        </mxCell>
        <mxCell id="3Fzgw3bwLbgeH6Izsh_8-87" value="17" style="whiteSpace=wrap;html=1;aspect=fixed;fillColor=#99FF99;" vertex="1" parent="1">
          <mxGeometry x="-130" y="320" width="40" height="40" as="geometry" />
        </mxCell>
        <mxCell id="3Fzgw3bwLbgeH6Izsh_8-88" value="13" style="whiteSpace=wrap;html=1;aspect=fixed;fillColor=#99FF99;" vertex="1" parent="1">
          <mxGeometry x="-440" y="400" width="40" height="40" as="geometry" />
        </mxCell>
        <mxCell id="3Fzgw3bwLbgeH6Izsh_8-89" value="22" style="whiteSpace=wrap;html=1;aspect=fixed;fillColor=#99FF99;" vertex="1" parent="1">
          <mxGeometry x="-400" y="400" width="40" height="40" as="geometry" />
        </mxCell>
        <mxCell id="3Fzgw3bwLbgeH6Izsh_8-90" value="21" style="whiteSpace=wrap;html=1;aspect=fixed;fillColor=#99FF99;" vertex="1" parent="1">
          <mxGeometry x="-360" y="400" width="40" height="40" as="geometry" />
        </mxCell>
        <mxCell id="3Fzgw3bwLbgeH6Izsh_8-91" value="28" style="whiteSpace=wrap;html=1;aspect=fixed;fillColor=#99FF99;" vertex="1" parent="1">
          <mxGeometry x="-320" y="400" width="40" height="40" as="geometry" />
        </mxCell>
        <mxCell id="3Fzgw3bwLbgeH6Izsh_8-92" value="24" style="whiteSpace=wrap;html=1;aspect=fixed;fillColor=#99FF99;" vertex="1" parent="1">
          <mxGeometry x="-250" y="400" width="40" height="40" as="geometry" />
        </mxCell>
        <mxCell id="3Fzgw3bwLbgeH6Izsh_8-93" value="12" style="whiteSpace=wrap;html=1;aspect=fixed;fillColor=#99FF99;" vertex="1" parent="1">
          <mxGeometry x="-210" y="400" width="40" height="40" as="geometry" />
        </mxCell>
        <mxCell id="3Fzgw3bwLbgeH6Izsh_8-94" value="37" style="whiteSpace=wrap;html=1;aspect=fixed;fillColor=#99FF99;" vertex="1" parent="1">
          <mxGeometry x="-170" y="400" width="40" height="40" as="geometry" />
        </mxCell>
        <mxCell id="3Fzgw3bwLbgeH6Izsh_8-95" value="34" style="whiteSpace=wrap;html=1;aspect=fixed;fillColor=#99FF99;" vertex="1" parent="1">
          <mxGeometry x="-130" y="400" width="40" height="40" as="geometry" />
        </mxCell>
        <mxCell id="3Fzgw3bwLbgeH6Izsh_8-96" value="" style="endArrow=none;html=1;rounded=0;dashed=1;dashPattern=12 12;" edge="1" parent="1">
          <mxGeometry width="50" height="50" relative="1" as="geometry">
            <mxPoint x="-620" y="255" as="sourcePoint" />
            <mxPoint x="-440" y="120" as="targetPoint" />
          </mxGeometry>
        </mxCell>
        <mxCell id="3Fzgw3bwLbgeH6Izsh_8-97" value="" style="endArrow=none;html=1;rounded=0;dashed=1;dashPattern=12 12;" edge="1" parent="1">
          <mxGeometry width="50" height="50" relative="1" as="geometry">
            <mxPoint x="-620" y="310" as="sourcePoint" />
            <mxPoint x="-430" y="490" as="targetPoint" />
          </mxGeometry>
        </mxCell>
        <mxCell id="3Fzgw3bwLbgeH6Izsh_8-98" value="" style="endArrow=none;html=1;rounded=0;exitX=0.5;exitY=1;exitDx=0;exitDy=0;entryX=0.5;entryY=0;entryDx=0;entryDy=0;" edge="1" parent="1" source="3Fzgw3bwLbgeH6Izsh_8-58" target="3Fzgw3bwLbgeH6Izsh_8-76">
          <mxGeometry width="50" height="50" relative="1" as="geometry">
            <mxPoint x="-340" y="410" as="sourcePoint" />
            <mxPoint x="-290" y="360" as="targetPoint" />
          </mxGeometry>
        </mxCell>
        <mxCell id="3Fzgw3bwLbgeH6Izsh_8-99" value="" style="endArrow=none;html=1;rounded=0;exitX=0.5;exitY=1;exitDx=0;exitDy=0;entryX=0.5;entryY=0;entryDx=0;entryDy=0;" edge="1" parent="1" source="3Fzgw3bwLbgeH6Izsh_8-76" target="3Fzgw3bwLbgeH6Izsh_8-80">
          <mxGeometry width="50" height="50" relative="1" as="geometry">
            <mxPoint x="-340" y="410" as="sourcePoint" />
            <mxPoint x="-290" y="360" as="targetPoint" />
          </mxGeometry>
        </mxCell>
        <mxCell id="3Fzgw3bwLbgeH6Izsh_8-100" value="" style="endArrow=none;html=1;rounded=0;exitX=0.5;exitY=1;exitDx=0;exitDy=0;" edge="1" parent="1" source="3Fzgw3bwLbgeH6Izsh_8-59">
          <mxGeometry width="50" height="50" relative="1" as="geometry">
            <mxPoint x="-380" y="210" as="sourcePoint" />
            <mxPoint x="-380" y="240" as="targetPoint" />
          </mxGeometry>
        </mxCell>
        <mxCell id="3Fzgw3bwLbgeH6Izsh_8-102" value="" style="endArrow=none;html=1;rounded=0;exitX=0.5;exitY=1;exitDx=0;exitDy=0;entryX=0.5;entryY=0;entryDx=0;entryDy=0;" edge="1" parent="1" source="3Fzgw3bwLbgeH6Izsh_8-77" target="3Fzgw3bwLbgeH6Izsh_8-81">
          <mxGeometry width="50" height="50" relative="1" as="geometry">
            <mxPoint x="-340" y="410" as="sourcePoint" />
            <mxPoint x="-290" y="360" as="targetPoint" />
          </mxGeometry>
        </mxCell>
        <mxCell id="3Fzgw3bwLbgeH6Izsh_8-103" value="" style="endArrow=none;html=1;rounded=0;exitX=0.5;exitY=1;exitDx=0;exitDy=0;entryX=0.5;entryY=0;entryDx=0;entryDy=0;" edge="1" parent="1" source="3Fzgw3bwLbgeH6Izsh_8-60" target="3Fzgw3bwLbgeH6Izsh_8-78">
          <mxGeometry width="50" height="50" relative="1" as="geometry">
            <mxPoint x="-340" y="410" as="sourcePoint" />
            <mxPoint x="-290" y="360" as="targetPoint" />
          </mxGeometry>
        </mxCell>
        <mxCell id="3Fzgw3bwLbgeH6Izsh_8-104" value="" style="endArrow=none;html=1;rounded=0;exitX=0.5;exitY=1;exitDx=0;exitDy=0;entryX=0.5;entryY=0;entryDx=0;entryDy=0;" edge="1" parent="1" source="3Fzgw3bwLbgeH6Izsh_8-78" target="3Fzgw3bwLbgeH6Izsh_8-82">
          <mxGeometry width="50" height="50" relative="1" as="geometry">
            <mxPoint x="-340" y="410" as="sourcePoint" />
            <mxPoint x="-290" y="360" as="targetPoint" />
          </mxGeometry>
        </mxCell>
        <mxCell id="3Fzgw3bwLbgeH6Izsh_8-105" value="" style="endArrow=none;html=1;rounded=0;exitX=0.5;exitY=1;exitDx=0;exitDy=0;" edge="1" parent="1" source="3Fzgw3bwLbgeH6Izsh_8-61">
          <mxGeometry width="50" height="50" relative="1" as="geometry">
            <mxPoint x="-340" y="410" as="sourcePoint" />
            <mxPoint x="-300" y="240" as="targetPoint" />
          </mxGeometry>
        </mxCell>
        <mxCell id="3Fzgw3bwLbgeH6Izsh_8-106" value="" style="endArrow=none;html=1;rounded=0;entryX=0.5;entryY=1;entryDx=0;entryDy=0;exitX=0.5;exitY=0;exitDx=0;exitDy=0;" edge="1" parent="1" source="3Fzgw3bwLbgeH6Izsh_8-83" target="3Fzgw3bwLbgeH6Izsh_8-79">
          <mxGeometry width="50" height="50" relative="1" as="geometry">
            <mxPoint x="-340" y="410" as="sourcePoint" />
            <mxPoint x="-290" y="360" as="targetPoint" />
          </mxGeometry>
        </mxCell>
        <mxCell id="3Fzgw3bwLbgeH6Izsh_8-110" value="+" style="ellipse;whiteSpace=wrap;html=1;aspect=fixed;fillColor=#3399FF;" vertex="1" parent="1">
          <mxGeometry x="-240" y="240" width="30" height="30" as="geometry" />
        </mxCell>
        <mxCell id="3Fzgw3bwLbgeH6Izsh_8-111" value="+" style="ellipse;whiteSpace=wrap;html=1;aspect=fixed;fillColor=#3399FF;" vertex="1" parent="1">
          <mxGeometry x="-200" y="240" width="30" height="30" as="geometry" />
        </mxCell>
        <mxCell id="3Fzgw3bwLbgeH6Izsh_8-112" value="+" style="ellipse;whiteSpace=wrap;html=1;aspect=fixed;fillColor=#3399FF;" vertex="1" parent="1">
          <mxGeometry x="-160" y="240" width="30" height="30" as="geometry" />
        </mxCell>
        <mxCell id="3Fzgw3bwLbgeH6Izsh_8-113" value="+" style="ellipse;whiteSpace=wrap;html=1;aspect=fixed;fillColor=#3399FF;" vertex="1" parent="1">
          <mxGeometry x="-120" y="240" width="30" height="30" as="geometry" />
        </mxCell>
        <mxCell id="3Fzgw3bwLbgeH6Izsh_8-114" value="" style="endArrow=none;html=1;rounded=0;exitX=0.5;exitY=1;exitDx=0;exitDy=0;entryX=0.5;entryY=0;entryDx=0;entryDy=0;" edge="1" parent="1" target="3Fzgw3bwLbgeH6Izsh_8-110">
          <mxGeometry width="50" height="50" relative="1" as="geometry">
            <mxPoint x="-225" y="200" as="sourcePoint" />
            <mxPoint x="-95" y="360" as="targetPoint" />
          </mxGeometry>
        </mxCell>
        <mxCell id="3Fzgw3bwLbgeH6Izsh_8-115" value="" style="endArrow=none;html=1;rounded=0;exitX=0.5;exitY=1;exitDx=0;exitDy=0;entryX=0.5;entryY=0;entryDx=0;entryDy=0;" edge="1" parent="1" source="3Fzgw3bwLbgeH6Izsh_8-110">
          <mxGeometry width="50" height="50" relative="1" as="geometry">
            <mxPoint x="-145" y="410" as="sourcePoint" />
            <mxPoint x="-225" y="320" as="targetPoint" />
          </mxGeometry>
        </mxCell>
        <mxCell id="3Fzgw3bwLbgeH6Izsh_8-116" value="" style="endArrow=none;html=1;rounded=0;exitX=0.5;exitY=1;exitDx=0;exitDy=0;" edge="1" parent="1">
          <mxGeometry width="50" height="50" relative="1" as="geometry">
            <mxPoint x="-185" y="200" as="sourcePoint" />
            <mxPoint x="-185" y="240" as="targetPoint" />
          </mxGeometry>
        </mxCell>
        <mxCell id="3Fzgw3bwLbgeH6Izsh_8-117" value="" style="endArrow=none;html=1;rounded=0;exitX=0.5;exitY=1;exitDx=0;exitDy=0;entryX=0.5;entryY=0;entryDx=0;entryDy=0;" edge="1" parent="1" source="3Fzgw3bwLbgeH6Izsh_8-111">
          <mxGeometry width="50" height="50" relative="1" as="geometry">
            <mxPoint x="-145" y="410" as="sourcePoint" />
            <mxPoint x="-185" y="320" as="targetPoint" />
          </mxGeometry>
        </mxCell>
        <mxCell id="3Fzgw3bwLbgeH6Izsh_8-118" value="" style="endArrow=none;html=1;rounded=0;exitX=0.5;exitY=1;exitDx=0;exitDy=0;entryX=0.5;entryY=0;entryDx=0;entryDy=0;" edge="1" parent="1" target="3Fzgw3bwLbgeH6Izsh_8-112">
          <mxGeometry width="50" height="50" relative="1" as="geometry">
            <mxPoint x="-145" y="200" as="sourcePoint" />
            <mxPoint x="-95" y="360" as="targetPoint" />
          </mxGeometry>
        </mxCell>
        <mxCell id="3Fzgw3bwLbgeH6Izsh_8-119" value="" style="endArrow=none;html=1;rounded=0;exitX=0.5;exitY=1;exitDx=0;exitDy=0;entryX=0.5;entryY=0;entryDx=0;entryDy=0;" edge="1" parent="1" source="3Fzgw3bwLbgeH6Izsh_8-112">
          <mxGeometry width="50" height="50" relative="1" as="geometry">
            <mxPoint x="-145" y="410" as="sourcePoint" />
            <mxPoint x="-145" y="320" as="targetPoint" />
          </mxGeometry>
        </mxCell>
        <mxCell id="3Fzgw3bwLbgeH6Izsh_8-120" value="" style="endArrow=none;html=1;rounded=0;exitX=0.5;exitY=1;exitDx=0;exitDy=0;" edge="1" parent="1">
          <mxGeometry width="50" height="50" relative="1" as="geometry">
            <mxPoint x="-105" y="200" as="sourcePoint" />
            <mxPoint x="-105" y="240" as="targetPoint" />
          </mxGeometry>
        </mxCell>
        <mxCell id="3Fzgw3bwLbgeH6Izsh_8-121" value="" style="endArrow=none;html=1;rounded=0;entryX=0.5;entryY=1;entryDx=0;entryDy=0;exitX=0.5;exitY=0;exitDx=0;exitDy=0;" edge="1" parent="1" target="3Fzgw3bwLbgeH6Izsh_8-113">
          <mxGeometry width="50" height="50" relative="1" as="geometry">
            <mxPoint x="-105" y="320" as="sourcePoint" />
            <mxPoint x="-95" y="360" as="targetPoint" />
          </mxGeometry>
        </mxCell>
        <mxCell id="3Fzgw3bwLbgeH6Izsh_8-122" value="Core 1" style="rounded=1;whiteSpace=wrap;html=1;fillColor=#3399FF;strokeColor=#10739e;glass=1;" vertex="1" parent="1">
          <mxGeometry x="70" y="260" width="60" height="50" as="geometry" />
        </mxCell>
        <mxCell id="3Fzgw3bwLbgeH6Izsh_8-123" value="" style="endArrow=none;html=1;rounded=0;dashed=1;dashPattern=12 12;" edge="1" parent="1">
          <mxGeometry width="50" height="50" relative="1" as="geometry">
            <mxPoint x="-100" y="120" as="sourcePoint" />
            <mxPoint x="60" y="270" as="targetPoint" />
          </mxGeometry>
        </mxCell>
        <mxCell id="3Fzgw3bwLbgeH6Izsh_8-124" value="" style="endArrow=none;html=1;rounded=0;dashed=1;dashPattern=12 12;" edge="1" parent="1">
          <mxGeometry width="50" height="50" relative="1" as="geometry">
            <mxPoint x="70" y="320" as="sourcePoint" />
            <mxPoint x="-100" y="500" as="targetPoint" />
          </mxGeometry>
        </mxCell>
      </root>
    </mxGraphModel>
  </diagram>
</mxfile>
